<?xml version="1.0" standalone="no"?>
<!DOCTYPE svg PUBLIC "-//W3C//DTD SVG 20010904//EN"
 "http://www.w3.org/TR/2001/REC-SVG-20010904/DTD/svg10.dtd">
<svg version="1.0" xmlns="http://www.w3.org/2000/svg"
 width="700.000000pt" height="700.000000pt" viewBox="0 0 700.000000 700.000000"
 preserveAspectRatio="xMidYMid meet">
<metadata>
Created by potrace 1.14, written by Peter Selinger 2001-2017
</metadata>
<g transform="translate(0.000000,700.000000) scale(0.100000,-0.100000)"
fill="#000000" stroke="none">
<path d="M3149 6980 c-45 -24 -92 -81 -109 -135 -10 -30 -14 -126 -15 -381 0
-306 -2 -343 -18 -367 -26 -40 -63 -44 -189 -22 -16 3 -40 7 -54 10 -128 22
-489 23 -599 1 -11 -2 -42 -7 -70 -10 -194 -28 -434 -107 -631 -208 -125 -65
-155 -103 -128 -166 20 -49 72 -65 154 -47 104 21 271 38 415 40 164 2 281 -3
272 -11 -4 -5 -91 -20 -161 -29 -27 -3 -52 -8 -55 -10 -3 -1 -30 -6 -60 -10
-30 -4 -63 -9 -75 -11 -22 -5 -34 -8 -101 -19 -22 -3 -65 -13 -95 -20 -30 -7
-68 -16 -85 -18 -58 -9 -327 -77 -346 -88 -66 -35 -320 -283 -439 -429 -25
-30 -53 -63 -62 -74 -10 -11 -51 -67 -92 -125 -293 -419 -468 -861 -530 -1346
-27 -204 -27 -524 -1 -715 3 -19 7 -53 10 -75 13 -106 66 -328 111 -467 188
-580 565 -1106 1079 -1504 86 -67 298 -214 308 -214 3 0 35 -18 71 -40 144
-88 390 -201 606 -279 182 -67 472 -139 660 -166 8 -1 35 -5 60 -9 245 -39
718 -43 990 -7 121 16 148 21 280 47 559 112 1094 360 1525 707 180 146 369
331 475 467 19 25 40 50 46 55 6 6 28 35 49 65 22 30 42 57 45 60 10 10 117
176 157 245 380 655 492 1410 320 2145 -51 216 -136 442 -249 662 -68 134
-201 350 -219 356 -5 2 -9 8 -9 14 0 14 -117 163 -207 265 -142 160 -281 289
-462 431 -124 96 -172 122 -229 122 -22 0 -44 5 -47 10 -3 6 0 10 8 10 21 0
60 34 64 56 10 51 5 69 -30 99 -20 17 -48 37 -64 45 -15 8 -35 20 -43 26 -29
24 -276 142 -370 177 -87 33 -206 70 -212 67 -2 -1 -15 3 -29 9 -15 5 -44 12
-66 16 -21 3 -50 8 -63 10 -117 23 -335 24 -471 1 -52 -9 -140 -33 -195 -52
-54 -19 -112 -40 -129 -45 -38 -13 -78 1 -100 35 -14 21 -16 70 -18 358 -2
316 -3 335 -23 379 -26 56 -78 106 -124 119 -19 5 -116 10 -215 10 -158 -1
-184 -3 -216 -20z m2274 -1297 c-7 -2 -21 -2 -30 0 -10 3 -4 5 12 5 17 0 24
-2 18 -5z"/>
</g>
</svg>
